#Comment line ignore any data following # character 
#Hierarchical Translation and Rotation (.htr) file 
[Header]	
#Header keywords are followed by a single value 
FileType HTR		#Single word string
DataType HTRS		#Translation followed by rotation and scale data
FileVersion 1		#integer
NumSegments 84		#integer
NumFrames 2		#integer
DataFrameRate 30		#integer, data frame rate in this file
EulerRotationOrder ZYX
CalibrationUnits mm
RotationUnits Degrees
GlobalAxisofGravity Y
BoneLengthAxis Y
ScaleFactor 1.00
[SegmentNames&Hierarchy]
#CHILD	PARENT
MASTER GLOBAL
root MASTER
chest root
L_mid_tent01 root
R_mid_tent01 root
spine01 root
Bip01_Neck chest
L_humerus chest
R_humerus chest
weapon_bone chest
Bip01_Head Bip01_Neck
eye_left_bone Bip01_Head
eye_right_bone Bip01_Head
L_forearm L_humerus
L_front_hand L_forearm
L_weapon_bone L_forearm
L_front_hand01_01 L_front_hand
L_front_hand02_01 L_front_hand
L_front_hand03_01 L_front_hand
L_front_hand01_02 L_front_hand01_01
L_front_hand02_02 L_front_hand02_01
L_front_hand03_02 L_front_hand03_01
R_forearm R_humerus
R_front_hand R_forearm
R_weapon_bone R_forearm
R_front_hand01_01 R_front_hand
R_front_hand02_01 R_front_hand
R_front_hand03_01 R_front_hand
R_front_hand01_02 R_front_hand01_01
R_front_hand02_02 R_front_hand02_01
R_front_hand03_02 R_front_hand03_01
null_rope01_connect L_mid_tent01
Rope1_Seg01 null_rope01_connect
Rope1_Seg02 Rope1_Seg01
Rope1_Seg03 Rope1_Seg02
Rope1_Seg04 Rope1_Seg03
Rope1_Seg05 Rope1_Seg04
Rope1_Seg06 Rope1_Seg05
Rope1_Seg07 Rope1_Seg06
Rope1_Seg09 Rope1_Seg07
L_mid_hand01 Rope1_Seg09
L_mid_hand02 Rope1_Seg09
L_mid_hand03 Rope1_Seg09
null_rope02_connect R_mid_tent01
Rope2_Seg01 null_rope02_connect
Rope2_Seg02 Rope2_Seg01
Rope2_Seg03 Rope2_Seg02
Rope2_Seg04 Rope2_Seg03
Rope2_Seg05 Rope2_Seg04
Rope2_Seg06 Rope2_Seg05
Rope2_Seg07 Rope2_Seg06
Rope2_Seg09 Rope2_Seg07
R_mid_hand01 Rope2_Seg09
R_mid_hand02 Rope2_Seg09
R_mid_hand03 Rope2_Seg09
spine02 spine01
spine03 spine02
pelvis spine03
null_rope03_connect pelvis
null_rope04_connect pelvis
Rope3_Seg01 null_rope03_connect
Rope3_Seg02 Rope3_Seg01
Rope3_Seg03 Rope3_Seg02
Rope3_Seg04 Rope3_Seg03
Rope3_Seg05 Rope3_Seg04
Rope3_Seg06 Rope3_Seg05
Rope3_Seg07 Rope3_Seg06
Rope3_Seg08 Rope3_Seg07
Rope3_Seg09 Rope3_Seg08
R_rear_hand01 Rope3_Seg09
R_rear_hand02 Rope3_Seg09
R_rear_hand03 Rope3_Seg09
Rope4_Seg01 null_rope04_connect
Rope4_Seg02 Rope4_Seg01
Rope4_Seg03 Rope4_Seg02
Rope4_Seg04 Rope4_Seg03
Rope4_Seg05 Rope4_Seg04
Rope4_Seg06 Rope4_Seg05
Rope4_Seg07 Rope4_Seg06
Rope4_Seg08 Rope4_Seg07
Rope4_Seg09 Rope4_Seg08
L_rear_hand01 Rope4_Seg09
L_rear_hand02 Rope4_Seg09
L_rear_hand03 Rope4_Seg09
[BasePosition]
#SegmentName Tx, Ty, Tz, Rx, Ry, Rz, BoneLength
MASTER 0.000000 0.000000 0.000000 -90.000000 0.000000 0.000000 10.000000 
root 0.000000 0.000000 0.000000 0.000000 0.000000 0.000000 10.000000 
chest 0.000000 0.000000 0.000000 0.000000 0.000000 0.000000 10.000000 
L_mid_tent01 0.000000 0.000000 0.000000 0.000000 0.000000 0.000000 10.000000 
R_mid_tent01 0.000000 0.000000 0.000000 0.000000 0.000000 0.000000 10.000000 
spine01 0.000000 0.000000 0.000000 0.000000 0.000000 0.000000 10.000000 
Bip01_Neck 0.000000 0.000000 0.000000 0.000000 0.000000 0.000000 10.000000 
L_humerus 0.000000 0.000000 0.000000 0.000000 0.000000 0.000000 10.000000 
R_humerus 0.000000 0.000000 0.000000 0.000000 0.000000 0.000000 10.000000 
weapon_bone 0.000000 0.000000 0.000000 0.000000 0.000000 0.000000 10.000000 
Bip01_Head 0.000000 0.000000 0.000000 0.000000 0.000000 0.000000 10.000000 
eye_left_bone 0.000000 0.000000 0.000000 0.000000 0.000000 0.000000 10.000000 
eye_right_bone 0.000000 0.000000 0.000000 0.000000 0.000000 0.000000 10.000000 
L_forearm 0.000000 0.000000 0.000000 0.000000 0.000000 0.000000 10.000000 
L_front_hand 0.000000 0.000000 0.000000 0.000000 0.000000 0.000000 10.000000 
L_weapon_bone 0.000000 0.000000 0.000000 0.000000 0.000000 0.000000 10.000000 
L_front_hand01_01 0.000000 0.000000 0.000000 0.000000 0.000000 0.000000 10.000000 
L_front_hand02_01 0.000000 0.000000 0.000000 0.000000 0.000000 0.000000 10.000000 
L_front_hand03_01 0.000000 0.000000 0.000000 0.000000 0.000000 0.000000 10.000000 
L_front_hand01_02 0.000000 0.000000 0.000000 0.000000 0.000000 0.000000 10.000000 
L_front_hand02_02 0.000000 0.000000 0.000000 0.000000 0.000000 0.000000 10.000000 
L_front_hand03_02 0.000000 0.000000 0.000000 0.000000 0.000000 0.000000 10.000000 
R_forearm 0.000000 0.000000 0.000000 0.000000 0.000000 0.000000 10.000000 
R_front_hand 0.000000 0.000000 0.000000 0.000000 0.000000 0.000000 10.000000 
R_weapon_bone 0.000000 0.000000 0.000000 0.000000 0.000000 0.000000 10.000000 
R_front_hand01_01 0.000000 0.000000 0.000000 0.000000 0.000000 0.000000 10.000000 
R_front_hand02_01 0.000000 0.000000 0.000000 0.000000 0.000000 0.000000 10.000000 
R_front_hand03_01 0.000000 0.000000 0.000000 0.000000 0.000000 0.000000 10.000000 
R_front_hand01_02 0.000000 0.000000 0.000000 0.000000 0.000000 0.000000 10.000000 
R_front_hand02_02 0.000000 0.000000 0.000000 0.000000 0.000000 0.000000 10.000000 
R_front_hand03_02 0.000000 0.000000 0.000000 0.000000 0.000000 0.000000 10.000000 
null_rope01_connect 0.000000 0.000000 0.000000 0.000000 0.000000 0.000000 10.000000 
Rope1_Seg01 0.000000 0.000000 0.000000 0.000000 0.000000 0.000000 10.000000 
Rope1_Seg02 0.000000 0.000000 0.000000 0.000000 0.000000 0.000000 10.000000 
Rope1_Seg03 0.000000 0.000000 0.000000 0.000000 0.000000 0.000000 10.000000 
Rope1_Seg04 0.000000 0.000000 0.000000 0.000000 0.000000 0.000000 10.000000 
Rope1_Seg05 0.000000 0.000000 0.000000 0.000000 0.000000 0.000000 10.000000 
Rope1_Seg06 0.000000 0.000000 0.000000 0.000000 0.000000 0.000000 10.000000 
Rope1_Seg07 0.000000 0.000000 0.000000 0.000000 0.000000 0.000000 10.000000 
Rope1_Seg09 0.000000 0.000000 0.000000 0.000000 0.000000 0.000000 10.000000 
L_mid_hand01 0.000000 0.000000 0.000000 0.000000 0.000000 0.000000 10.000000 
L_mid_hand02 0.000000 0.000000 0.000000 0.000000 0.000000 0.000000 10.000000 
L_mid_hand03 0.000000 0.000000 0.000000 0.000000 0.000000 0.000000 10.000000 
null_rope02_connect 0.000000 0.000000 0.000000 0.000000 0.000000 0.000000 10.000000 
Rope2_Seg01 0.000000 0.000000 0.000000 0.000000 0.000000 0.000000 10.000000 
Rope2_Seg02 0.000000 0.000000 0.000000 0.000000 0.000000 0.000000 10.000000 
Rope2_Seg03 0.000000 0.000000 0.000000 0.000000 0.000000 0.000000 10.000000 
Rope2_Seg04 0.000000 0.000000 0.000000 0.000000 0.000000 0.000000 10.000000 
Rope2_Seg05 0.000000 0.000000 0.000000 0.000000 0.000000 0.000000 10.000000 
Rope2_Seg06 0.000000 0.000000 0.000000 0.000000 0.000000 0.000000 10.000000 
Rope2_Seg07 0.000000 0.000000 0.000000 0.000000 0.000000 0.000000 10.000000 
Rope2_Seg09 0.000000 0.000000 0.000000 0.000000 0.000000 0.000000 10.000000 
R_mid_hand01 0.000000 0.000000 0.000000 0.000000 0.000000 0.000000 10.000000 
R_mid_hand02 0.000000 0.000000 0.000000 0.000000 0.000000 0.000000 10.000000 
R_mid_hand03 0.000000 0.000000 0.000000 0.000000 0.000000 0.000000 10.000000 
spine02 0.000000 0.000000 0.000000 0.000000 0.000000 0.000000 10.000000 
spine03 0.000000 0.000000 0.000000 0.000000 0.000000 0.000000 10.000000 
pelvis 0.000000 0.000000 0.000000 0.000000 0.000000 0.000000 10.000000 
null_rope03_connect 0.000000 0.000000 0.000000 0.000000 0.000000 0.000000 10.000000 
null_rope04_connect 0.000000 0.000000 0.000000 0.000000 0.000000 0.000000 10.000000 
Rope3_Seg01 0.000000 0.000000 0.000000 0.000000 0.000000 0.000000 10.000000 
Rope3_Seg02 0.000000 0.000000 0.000000 0.000000 0.000000 0.000000 10.000000 
Rope3_Seg03 0.000000 0.000000 0.000000 0.000000 0.000000 0.000000 10.000000 
Rope3_Seg04 0.000000 0.000000 0.000000 0.000000 0.000000 0.000000 10.000000 
Rope3_Seg05 0.000000 0.000000 0.000000 0.000000 0.000000 0.000000 10.000000 
Rope3_Seg06 0.000000 0.000000 0.000000 0.000000 0.000000 0.000000 10.000000 
Rope3_Seg07 0.000000 0.000000 0.000000 0.000000 0.000000 0.000000 10.000000 
Rope3_Seg08 0.000000 0.000000 0.000000 0.000000 0.000000 0.000000 10.000000 
Rope3_Seg09 0.000000 0.000000 0.000000 0.000000 0.000000 0.000000 10.000000 
R_rear_hand01 0.000000 0.000000 0.000000 0.000000 0.000000 0.000000 10.000000 
R_rear_hand02 0.000000 0.000000 0.000000 0.000000 0.000000 0.000000 10.000000 
R_rear_hand03 0.000000 0.000000 0.000000 0.000000 0.000000 0.000000 10.000000 
Rope4_Seg01 0.000000 0.000000 0.000000 0.000000 0.000000 0.000000 10.000000 
Rope4_Seg02 0.000000 0.000000 0.000000 0.000000 0.000000 0.000000 10.000000 
Rope4_Seg03 0.000000 0.000000 0.000000 0.000000 0.000000 0.000000 10.000000 
Rope4_Seg04 0.000000 0.000000 0.000000 0.000000 0.000000 0.000000 10.000000 
Rope4_Seg05 0.000000 0.000000 0.000000 0.000000 0.000000 0.000000 10.000000 
Rope4_Seg06 0.000000 0.000000 0.000000 0.000000 0.000000 0.000000 10.000000 
Rope4_Seg07 0.000000 0.000000 0.000000 0.000000 0.000000 0.000000 10.000000 
Rope4_Seg08 0.000000 0.000000 0.000000 0.000000 0.000000 0.000000 10.000000 
Rope4_Seg09 0.000000 0.000000 0.000000 0.000000 0.000000 0.000000 10.000000 
L_rear_hand01 0.000000 0.000000 0.000000 0.000000 0.000000 0.000000 10.000000 
L_rear_hand02 0.000000 0.000000 0.000000 0.000000 0.000000 0.000000 10.000000 
L_rear_hand03 0.000000 0.000000 0.000000 0.000000 0.000000 0.000000 10.000000 
#Beginning of Data. Separated by tabs
#Fr	Tx	Ty	Tz	Rx	Ry	Rz	SF
[MASTER]
13 3677.655518 0.000555 0.000000 0.001864 0.001427 15.109970 3677.655273
14 3864.868164 0.000584 0.000000 0.001876 0.001411 16.108355 3864.868164
[root]
13 -96.038513 -63.212433 883.954346 -85.816078 -44.243858 -99.344017 891.400330
14 -93.811340 -63.201523 911.045410 -87.502220 -42.874031 -98.532433 918.040771
[chest]
13 -84.512650 -34.090519 0.000000 -2.328901 17.195517 -178.042358 91.129311
14 -84.512650 -34.090519 0.000000 -2.216483 17.596581 177.958298 91.129311
[L_mid_tent01]
13 27.299614 22.177504 -249.918076 0.648425 28.856388 49.976696 252.380966
14 27.299629 22.177504 -249.918076 1.109786 32.776295 52.529240 252.380966
[R_mid_tent01]
13 23.228794 24.509907 226.238495 155.451279 -19.405365 91.657951 228.744751
14 23.228794 24.509907 226.238495 154.644882 -21.694492 92.205444 228.744751
[spine01]
13 -0.361383 -0.195265 0.000000 0.238226 0.412386 13.107586 0.410763
14 -0.361383 -0.195265 0.000000 0.162329 0.402853 12.879189 0.410763
[Bip01_Neck]
13 165.484543 71.581718 0.000119 175.896118 1.177290 24.871183 180.302734
14 165.484543 71.581718 0.000119 175.896118 1.177290 24.871183 180.302734
[L_humerus]
13 -13.983130 -135.272980 -120.471481 179.674789 81.645012 -91.927795 181.680161
14 -13.983130 -135.272980 -120.471481 176.257370 81.637329 -94.771049 181.680161
[R_humerus]
13 -13.983309 -135.273102 125.287651 -163.361755 -69.186424 -98.880257 184.909012
14 -13.983309 -135.273102 125.287651 -161.922592 -69.099579 -99.768066 184.909012
[weapon_bone]
13 235.964890 -300.705902 0.000000 0.000000 -89.951546 -128.212341 382.234833
14 235.964890 -300.705902 0.000000 0.000000 -89.951546 -128.212341 382.234833
[Bip01_Head]
13 256.057434 70.422050 3.879394 0.867666 3.886960 -73.000977 265.593170
14 255.957031 64.269371 8.777771 0.689431 3.677422 -73.699547 264.048492
[eye_left_bone]
13 -24.626970 125.451866 -64.772606 0.000000 -90.000000 -99.840431 143.318359
14 -24.626970 125.451866 -64.772606 0.000000 -90.000000 -99.840431 143.318359
[eye_right_bone]
13 -24.626970 125.451866 64.327362 0.000000 -89.960434 80.159386 143.117676
14 -24.626970 125.451866 64.327362 0.000000 -89.960434 80.159386 143.117676
[L_forearm]
13 322.776093 0.000000 -0.000119 0.000319 0.002325 -74.382004 322.776093
14 322.776093 0.000000 -0.000119 0.000284 0.002330 -76.092827 322.776093
[L_front_hand]
13 241.149185 -0.042021 -3.300071 -178.644424 -1.819501 -28.069609 241.171753
14 241.149185 -0.042021 -3.300071 -178.475525 -1.680012 -33.659088 241.171753
[L_weapon_bone]
13 156.183838 0.000000 0.000000 0.001988 0.001247 25.808270 156.183838
14 156.183838 0.000000 0.000000 0.001945 0.001314 21.900709 156.183838
[L_front_hand01_01]
13 86.095154 20.947098 -0.655860 0.405585 -0.442306 -4.620490 88.609184
14 86.095154 20.947098 -0.655860 0.405585 -0.442306 -4.620490 88.609184
[L_front_hand02_01]
13 86.935165 -11.437475 24.513514 116.959450 3.630817 1.495453 91.046425
14 86.935165 -11.437475 24.513514 116.959450 3.630817 1.495453 91.046425
[L_front_hand03_01]
13 86.637497 -14.123976 -20.424902 -118.420097 -4.656303 -0.152527 90.126129
14 86.637497 -14.123976 -20.424902 -118.420097 -4.656304 -0.152527 90.126129
[L_front_hand01_02]
13 71.020905 -0.000179 0.000030 0.001534 0.001777 -8.378848 71.020905
14 71.020905 -0.000179 0.000030 0.001534 0.001777 -8.378851 71.020905
[L_front_hand02_02]
13 71.020927 -0.000119 0.000060 0.001534 0.001777 -8.378848 71.020927
14 71.020927 -0.000119 0.000060 0.001534 0.001777 -8.378851 71.020927
[L_front_hand03_02]
13 71.020905 -0.000060 0.000060 0.001534 0.001777 -8.378848 71.020905
14 71.020905 -0.000060 0.000060 0.001534 0.001777 -8.378851 71.020905
[R_forearm]
13 322.776428 -0.000060 0.000030 0.199642 -0.075757 -69.824646 322.776428
14 322.776428 -0.000060 0.000030 0.199694 -0.075621 -69.903069 322.776428
[R_front_hand]
13 238.847015 -0.006795 2.210259 -1.625255 0.590492 -58.806774 238.857239
14 238.847015 -0.006795 2.210259 -1.703285 0.297777 -68.812042 238.857239
[R_weapon_bone]
13 155.664093 0.002503 -0.000030 0.002958 0.002191 -126.655670 155.664078
14 155.664093 0.002503 -0.000030 0.003047 0.002065 -121.855042 155.664078
[R_front_hand01_01]
13 87.624611 14.231146 22.918642 -116.960205 3.496675 -1.324138 91.683487
14 87.624611 14.231146 22.918642 -116.960205 3.496675 -1.324138 91.683487
[R_front_hand02_01]
13 89.356956 14.367283 -19.491137 118.419647 -4.257089 0.609827 92.579636
14 89.356956 14.367283 -19.491137 118.419647 -4.257089 0.609827 92.579636
[R_front_hand03_01]
13 87.286232 -22.307278 -0.143439 -0.387970 -0.231462 4.232001 90.091743
14 87.286232 -22.307278 -0.143439 -0.387970 -0.231462 4.232001 90.091743
[R_front_hand01_02]
13 71.020905 0.000060 0.000119 0.001777 0.001534 8.377220 71.020905
14 71.020905 0.000060 0.000119 0.001777 0.001534 8.377220 71.020905
[R_front_hand02_02]
13 71.020844 -0.000030 -0.000119 0.001777 0.001534 8.377220 71.020836
14 71.020844 -0.000030 -0.000119 0.001777 0.001534 8.377220 71.020836
[R_front_hand03_02]
13 71.020905 0.000000 0.000030 0.001777 0.001534 8.377220 71.020905
14 71.020905 0.000000 0.000030 0.001777 0.001534 8.377220 71.020905
[null_rope01_connect]
13 328.732483 0.000000 -0.000238 -88.423958 -69.908218 172.122604 328.732483
14 328.732483 0.000000 -0.000238 -96.455803 -66.638252 176.843735 328.732483
[Rope1_Seg01]
13 0.000000 0.000000 0.000000 161.374481 45.644085 -156.775085 0.000000
14 0.000000 0.000000 0.000000 152.744141 49.329823 -169.536301 0.000000
[Rope1_Seg02]
13 139.999863 -0.000179 0.000000 -7.725048 -2.291691 13.972925 139.999863
14 139.999863 -0.000179 0.000000 -4.924426 -4.639953 14.576753 139.999863
[Rope1_Seg03]
13 139.999924 0.000060 -0.000060 -7.341798 -0.003615 17.208803 139.999924
14 139.999924 0.000060 -0.000060 -4.889886 -0.377764 18.317244 139.999924
[Rope1_Seg04]
13 139.999924 -0.000060 -0.000119 -2.241166 -9.406422 15.303561 139.999924
14 139.999924 -0.000060 -0.000119 -1.867711 -17.143888 14.334610 139.999924
[Rope1_Seg05]
13 139.999832 0.000119 -0.000060 -1.449871 -26.052267 5.435838 139.999832
14 139.999832 0.000119 -0.000060 -4.965065 -23.025824 3.726679 139.999832
[Rope1_Seg06]
13 139.999954 0.000119 -0.000060 -2.291597 -11.520567 2.818407 139.999954
14 139.999954 0.000119 -0.000060 -2.642240 -7.965313 1.722986 139.999954
[Rope1_Seg07]
13 139.999985 0.000060 0.000000 -1.470193 -5.619976 1.534719 139.999985
14 139.999985 0.000060 0.000000 -1.756462 -4.364603 0.806135 139.999985
[Rope1_Seg09]
13 121.602913 0.000119 -0.000089 -89.793175 -1.359789 0.847147 121.602913
14 121.602913 0.000119 -0.000089 -89.793175 -1.359789 0.847147 121.602913
[L_mid_hand01]
13 103.859421 1.038730 8.195221 104.366898 -2.421568 -1.149032 104.187431
14 103.859421 1.038730 8.195221 104.394287 -4.293092 -1.633497 104.187431
[L_mid_hand02]
13 105.572853 -4.139662 -10.864139 -135.786102 5.891682 -5.427630 106.211075
14 105.572853 -4.139662 -10.864139 -135.946564 7.240659 -6.824872 106.211075
[L_mid_hand03]
13 104.641464 17.579376 -3.913581 -18.755919 0.592747 5.640763 106.179977
14 104.641464 17.579376 -3.913581 -18.729256 1.210565 7.472278 106.179977
[null_rope02_connect]
13 328.732849 0.000179 -0.000119 -88.702347 50.611916 43.487617 328.732849
14 328.732849 0.000179 -0.000119 -90.067520 47.873856 43.763222 328.732849
[Rope2_Seg01]
13 -0.000058 0.000134 0.000153 -47.679733 10.811012 -9.634073 0.000211
14 -0.000056 0.000134 0.000153 -47.732819 10.502176 -7.808387 0.000210
[Rope2_Seg02]
13 139.999741 -0.000060 -0.000119 -21.607317 -10.470773 30.198835 139.999756
14 139.999741 -0.000060 -0.000119 -24.547213 -11.341597 38.195438 139.999756
[Rope2_Seg03]
13 140.000107 0.000030 0.000000 -12.254183 -25.399473 36.221035 140.000107
14 140.000107 0.000030 0.000000 -9.255715 -23.932949 35.371933 140.000107
[Rope2_Seg04]
13 139.999802 0.000000 -0.000060 0.925399 -14.452771 16.116344 139.999802
14 139.999802 0.000000 -0.000060 1.891062 -11.850449 13.774087 139.999802
[Rope2_Seg05]
13 139.999985 -0.000060 0.000119 7.114714 -15.177903 18.536880 139.999985
14 139.999985 -0.000060 0.000119 6.658027 -13.764494 16.215281 139.999985
[Rope2_Seg06]
13 139.999893 -0.000030 -0.000119 15.658401 -8.580613 14.623555 139.999893
14 139.999893 -0.000030 -0.000119 14.191788 -8.508791 13.527397 139.999893
[Rope2_Seg07]
13 139.999893 0.000060 -0.000060 13.418604 -1.914455 7.706708 139.999893
14 139.999893 0.000060 -0.000060 13.087294 -2.274679 7.568948 139.999893
[Rope2_Seg09]
13 121.338966 0.000089 -0.000060 33.793236 -1.359788 -0.847141 121.338966
14 121.338966 0.000089 -0.000060 33.793236 -1.359788 -0.847141 121.338966
[R_mid_hand01]
13 104.680779 11.144459 -10.335981 -47.166042 5.964268 8.233263 105.778534
14 104.680779 11.144459 -10.335981 -47.009083 7.397055 9.573327 105.778534
[R_mid_hand02]
13 104.070427 2.443552 8.231699 75.550705 -6.213388 2.132293 104.424065
14 104.070427 2.443552 8.231699 75.492203 -8.101108 2.625583 104.424065
[R_mid_hand03]
13 106.028137 -11.221827 -5.996406 -164.587372 3.590652 -10.082821 106.788818
14 106.028137 -11.221827 -5.996406 -164.713638 4.104003 -11.970146 106.788818
[spine02]
13 129.756927 0.001550 0.000119 -0.148417 -4.116753 -5.746021 129.756927
14 129.756927 0.001550 0.000119 -0.134846 -4.092885 -5.937802 129.756927
[spine03]
13 78.817108 0.051804 -2.914022 1.615504 0.898882 9.566870 78.870972
14 78.849953 0.046120 -2.593485 1.698929 0.449799 11.235893 78.892609
[pelvis]
13 169.435242 0.051022 0.000000 81.984207 14.873917 1.931422 169.435257
14 169.435242 0.051022 0.000000 61.397076 13.102382 -1.234272 169.435257
[null_rope03_connect]
13 -1.257226 -2.466202 137.391083 23.947580 -0.631185 95.435982 137.418976
14 -1.257226 -2.466202 137.391083 24.012465 -21.889088 92.544334 137.418976
[null_rope04_connect]
13 -1.259640 -2.480268 -137.844437 23.947580 -0.631185 95.435982 137.872513
14 -1.259640 -2.480268 -137.844437 24.012465 -21.889088 92.544334 137.872513
[Rope3_Seg01]
13 0.000000 0.000000 0.000000 -120.704460 -62.124874 -98.999893 0.000000
14 0.000000 0.000000 0.000000 -140.021973 -63.200874 -76.958328 0.000000
[Rope3_Seg02]
13 139.999924 -0.000119 0.000060 -0.234128 37.733768 -6.688212 139.999924
14 139.999924 -0.000119 0.000060 -11.684856 31.463356 -16.733702 139.999924
[Rope3_Seg03]
13 139.999924 -0.000119 0.000119 10.231702 29.085846 5.309112 139.999924
14 139.999924 -0.000119 0.000119 0.325484 26.060331 0.960333 139.999924
[Rope3_Seg04]
13 139.999924 0.000119 0.000000 5.593600 9.617833 -2.961495 139.999924
14 139.999924 0.000119 0.000000 1.340114 9.918950 -2.945568 139.999924
[Rope3_Seg05]
13 139.999924 -0.000238 0.000060 5.315418 2.466562 -20.773607 139.999924
14 139.999924 -0.000238 0.000060 -0.061390 6.857878 -21.249758 139.999924
[Rope3_Seg06]
13 139.999893 -0.000119 -0.000060 0.976364 -3.868920 -39.653294 139.999893
14 139.999893 -0.000119 -0.000060 -9.547544 6.365234 -35.699520 139.999893
[Rope3_Seg07]
13 139.999771 0.000060 -0.000119 -4.357648 -0.412974 -16.696186 139.999771
14 139.999771 0.000060 -0.000119 -8.148247 5.658976 -13.586016 139.999771
[Rope3_Seg08]
13 139.999985 -0.000060 0.000000 -2.909441 0.515940 -7.065838 139.999985
14 139.999985 -0.000060 0.000000 -4.249735 3.456104 -5.738713 139.999985
[Rope3_Seg09]
13 90.185997 -0.000179 -0.000060 89.793228 -1.359877 -0.847183 90.185997
14 90.185997 -0.000179 -0.000060 89.793228 -1.359877 -0.847183 90.185997
[R_rear_hand01]
13 103.366196 -6.073594 -10.757982 -156.049316 6.070419 -2.795869 104.101845
14 103.366196 -6.073594 -10.757982 -156.102097 6.291094 -3.294051 104.101845
[R_rear_hand02]
13 100.509819 12.039542 -7.992327 -38.708435 1.958051 5.461186 101.543350
14 100.509819 12.039542 -7.992327 -38.693447 2.294945 5.884003 101.543350
[R_rear_hand03]
13 101.539970 5.215704 5.435467 84.307625 -2.361032 4.099037 101.819031
14 101.539970 5.215704 5.435467 84.306572 -2.901705 4.150926 101.819031
[Rope4_Seg01]
13 -0.000014 -0.000040 -0.000153 51.675011 20.232450 -88.764740 0.000158
14 -0.000014 -0.000037 -0.000153 47.300247 18.870289 -102.817444 0.000158
[Rope4_Seg02]
13 139.999985 0.000060 0.000119 2.466243 12.036066 0.167194 139.999985
14 139.999985 0.000060 0.000119 1.173200 12.927256 -5.975794 139.999985
[Rope4_Seg03]
13 139.999924 0.000000 -0.000238 10.105277 23.349234 0.001313 139.999924
14 139.999924 0.000000 -0.000238 6.062433 23.839624 -10.063439 139.999924
[Rope4_Seg04]
13 139.999985 0.000000 0.000119 35.555729 29.399446 2.256113 139.999985
14 139.999985 0.000000 0.000119 13.157590 23.160543 -8.021171 139.999985
[Rope4_Seg05]
13 139.999802 -0.000060 -0.000119 49.997303 10.690955 -22.793442 139.999802
14 139.999802 -0.000060 -0.000119 22.361692 9.192895 -33.506359 139.999802
[Rope4_Seg06]
13 139.999924 0.000000 0.000060 19.277010 -31.546003 -36.899628 139.999924
14 139.999924 0.000000 0.000060 12.593827 -12.750086 -45.564404 139.999924
[Rope4_Seg07]
13 139.999802 0.000000 0.000000 2.238439 -15.594641 -13.339138 139.999802
14 139.999802 0.000000 0.000000 -1.087830 -4.319238 -12.245514 139.999802
[Rope4_Seg08]
13 139.999924 0.000000 0.000119 -1.557738 -5.256480 -4.671574 139.999924
14 139.999924 0.000000 0.000119 -2.528272 -1.598682 -4.976341 139.999924
[Rope4_Seg09]
13 90.185791 0.000060 0.000060 -135.617828 2.228885 0.850567 90.185791
14 90.185791 0.000060 0.000060 -135.617828 2.228885 0.850567 90.185791
[L_rear_hand01]
13 101.696655 -8.392275 -7.654577 -38.746338 0.246096 177.290207 102.329041
14 101.696655 -8.392275 -7.654577 -38.746677 -0.110138 176.843857 102.329041
[L_rear_hand02]
13 102.726799 -1.568258 5.773216 84.315163 -1.142796 176.247437 102.900848
14 102.726799 -1.568258 5.773216 84.314537 -0.574387 176.194839 102.900848
[L_rear_hand03]
13 104.552910 9.721220 -10.420293 -155.747955 -4.630845 179.564758 105.519653
14 104.552910 9.721220 -10.420293 -155.787659 -4.864427 -179.911667 105.519653
